<!-- Generated by IcoMoon.io -->
<svg version="1.1" xmlns="http://www.w3.org/2000/svg" width="29" height="32" viewBox="0 0 29 32">
<title>ThemeFusion</title>
<path fill="#a0a5aa" d="M28.646 9.523l-14.272-9.517-14.27 9.519v12.857l14.271 9.516 14.27-9.517v-12.858zM1.946 14.232v-3.722l12.43-8.29 12.43 8.289v4.951l-12.431 8.289-7.239-4.828 2.79-1.862 4.451 2.967 10.558-7.043-10.56-7.041-12.428 8.29zM11.584 15.952l2.79-1.861 2.791 1.861-2.79 1.861-2.791-1.861zM14.376 29.685l-12.43-8.289v-4.951l12.43-8.29 7.24 4.828-2.791 1.862-4.451-2.967-10.556 7.044 10.559 7.040 12.429-8.29v3.723l-12.429 8.29z"></path>
</svg>
