<?xml version="1.0" encoding="UTF-8" standalone="no"?>
<svg width="80px" height="97px" viewBox="0 0 80 97" version="1.1" xmlns="http://www.w3.org/2000/svg" xmlns:xlink="http://www.w3.org/1999/xlink">
    <!-- Generator: Sketch 3.6.1 (26313) - http://www.bohemiancoding.com/sketch -->
    <title>Logo-Label</title>
    <desc>Created with Sketch.</desc>
    <defs></defs>
    <g id="Register-Page" stroke="none" stroke-width="1" fill="none" fill-rule="evenodd">
        <g id="How-it-works" transform="translate(-100.000000, 0.000000)">
            <g id="Navigation">
                <g id="Logo-Label" transform="translate(100.000000, 0.000000)">
                    <g id="Page-1">
                        <path d="M0,96.7901235 L80,96.7901235 L80,0 L0,0 L0,96.7901235 Z" id="Fill-1" fill="#CB3B43"></path>
                        <path d="M34.3882831,46.2345234 L44.953395,46.2345234 L44.953395,56.9034536 L34.3882831,56.9034536 L34.3882831,46.2345234 Z" id="Fill-4" fill="#FFFFFF"></path>
                        <path d="M34.3882831,58.1754337 L44.970208,58.1754337 L44.970208,68.8950437 L34.3882831,68.8950437 L34.3882831,58.1754337 Z" id="Fill-5" fill="#FFFFFF"></path>
                        <path d="M46.2151886,34.2491644 L56.7971136,34.2491644 L56.7971136,44.9687744 L46.2151886,44.9687744 L46.2151886,34.2491644 Z" id="Fill-6" fill="#FFFFFF"></path>
                        <path d="M34.3882831,34.2491644 L44.970208,34.2491644 L44.970208,44.9687744 L34.3882831,44.9687744 L34.3882831,34.2491644 Z" id="Fill-7" fill="#FFFFFF"></path>
                        <path d="M22.5736797,34.2491644 L33.1515039,34.2491644 L33.1515039,44.9687744 L22.5736797,44.9687744 L22.5736797,34.2491644 Z" id="Fill-8" fill="#FFFFFF"></path>
                        <path d="M22.5738437,75.2188036 L22.5738437,76.8658973 L24.9723587,76.8658973 L24.9723587,83.8476639 L26.9702327,83.8476639 L26.9702327,76.8658973 L29.3687477,76.8658973 L29.3687477,75.2188036 L22.5738437,75.2188036 Z" id="Fill-9" fill="#FFFFFF"></path>
                        <g id="Group-17" transform="translate(29.803922, 76.162720)" fill="#FFFFFF">
                            <path d="M3.97011367,0.785137265 C3.89343008,1.24416339 3.8286386,1.76010044 3.76384712,2.32588648 C3.69495491,2.88710304 3.64246561,3.48113684 3.59407704,4.09552565 C3.54527839,4.71032987 3.49688982,5.32887276 3.46039335,5.94367698 C3.4161055,6.56221987 3.38370976,7.14005275 3.35541475,7.68506838 L4.8964678,7.68506838 C4.91656136,7.01293783 4.94075565,6.27974226 4.96905066,5.48880494 C5.00103633,4.70409874 5.04532418,3.90776112 5.10929551,3.10311533 L5.42628168,3.98918114 C5.53946173,4.32109233 5.65264178,4.65715761 5.76582184,4.98491473 C5.88310262,5.31267184 5.98849129,5.63212079 6.09346989,5.93121473 C6.20254922,6.23446276 6.28784433,6.48869261 6.36452792,6.70138164 L7.37986782,6.70138164 L7.65871723,5.93121473 L8.00645884,4.98491473 C8.12373962,4.65715761 8.2410204,4.32109233 8.36650264,3.98918114 L8.70235214,3.08359114 C8.75894217,3.89488346 8.80733075,4.69786762 8.83562576,5.48880494 C8.86392077,6.27974226 8.89631651,7.01293783 8.91271942,7.68506838 L10.4574631,7.68506838 C10.4291681,7.14005275 10.388981,6.56221987 10.3524845,5.94367698 C10.3081967,5.32887276 10.2634988,4.71032987 10.2151102,4.09552565 C10.1704123,3.48113684 10.1097215,2.88710304 10.0490308,2.32588648 C9.98054862,1.76010044 9.91165641,1.24416339 9.83866348,0.785137265 L8.50018632,0.785137265 C8.39069692,0.994087618 8.27751687,1.25621023 8.14834398,1.56361234 C8.01055957,1.87101444 7.87728596,2.20707972 7.73171016,2.56350001 C7.58613437,2.92407437 7.44055857,3.29669558 7.30277416,3.66973219 C7.16129909,4.04650748 7.03171613,4.39877368 6.90664397,4.72653079 C6.78526247,4.39877368 6.65978023,4.04650748 6.52650662,3.66973219 C6.38872221,3.29669558 6.25134787,2.92407437 6.11356345,2.56350001 C5.97618911,2.20707972 5.83881477,1.87101444 5.71333254,1.56361234 C5.5878503,1.25621023 5.47877098,0.994087618 5.38158376,0.785137265 L3.97011367,0.785137265 Z" id="Fill-10"></path>
                            <path d="M11.9894536,7.68494376 L13.5346073,7.68494376 L13.5346073,0.785012643 L11.9894536,0.785012643 L11.9894536,7.68494376 Z" id="Fill-12"></path>
                            <path d="M0.278598587,7.68494376 L1.82375236,7.68494376 L1.82375236,0.785012643 L0.278598587,0.785012643 L0.278598587,7.68494376 Z" id="Fill-14"></path>
                            <path d="M19.7043555,2.0962488 L19.7043555,0.785220347 L15.073405,0.785220347 L15.073405,2.0962488 L15.073405,3.37030592 L15.073405,4.68174978 L15.073405,7.68473606 L16.6181487,7.68473606 L16.6181487,4.68174978 L19.0896566,4.68174978 L19.0896566,3.37030592 L16.6181487,3.37030592 L16.6181487,2.0962488 L19.7043555,2.0962488 Z" id="Fill-15"></path>
                            <path d="M22.9364252,7.68984558 L22.9364252,4.86382322 L21.5294659,2.67836039 L20.3103199,0.785344969 L21.9653731,0.785344969 C21.9653731,0.785344969 22.1408842,0.919521836 22.8761445,2.12212873 C23.52775,3.18765091 23.6618437,3.55985671 23.6618437,3.55985671 C23.6618437,3.55985671 23.787326,3.17311162 24.4184278,2.12877527 C25.05199,1.07945401 25.3378107,0.785344969 25.3378107,0.785344969 L26.9928639,0.785344969 L24.3876723,4.86382322 L24.3876723,7.68984558 L22.9364252,7.68984558 Z" id="Fill-16"></path>
                        </g>
                    </g>
                </g>
            </g>
        </g>
    </g>
</svg>